<?xml version="1.0" encoding="UTF-8" ?>
<svg version="1.1" width="56" height="56" xmlns="http://www.w3.org/2000/svg" shape-rendering="crispEdges">
<rect x="28" y="0" width="4" height="4" fill="#1C1C1C" />
<rect x="32" y="0" width="4" height="4" fill="#1C1C1C" />
<rect x="40" y="0" width="4" height="4" fill="#1C1C1C" />
<rect x="24" y="4" width="4" height="4" fill="#1C1C1C" />
<rect x="28" y="4" width="4" height="4" fill="#FFFFFF" />
<rect x="32" y="4" width="4" height="4" fill="#1C1C1C" />
<rect x="40" y="4" width="4" height="4" fill="#E4E4E4" />
<rect x="44" y="4" width="4" height="4" fill="#1C1C1C" />
<rect x="20" y="8" width="4" height="4" fill="#1C1C1C" />
<rect x="24" y="8" width="4" height="4" fill="#FFFFFF" />
<rect x="28" y="8" width="4" height="4" fill="#FFFFFF" />
<rect x="32" y="8" width="4" height="4" fill="#1C1C1C" />
<rect x="40" y="8" width="4" height="4" fill="#1C1C1C" />
<rect x="44" y="8" width="4" height="4" fill="#E4E4E4" />
<rect x="48" y="8" width="4" height="4" fill="#1C1C1C" />
<rect x="16" y="12" width="4" height="4" fill="#1C1C1C" />
<rect x="20" y="12" width="4" height="4" fill="#696A6A" />
<rect x="24" y="12" width="4" height="4" fill="#696A6A" />
<rect x="28" y="12" width="4" height="4" fill="#FFFFFF" />
<rect x="32" y="12" width="4" height="4" fill="#1C1C1C" />
<rect x="36" y="12" width="4" height="4" fill="#1C1C1C" />
<rect x="44" y="12" width="4" height="4" fill="#1C1C1C" />
<rect x="48" y="12" width="4" height="4" fill="#E4E4E4" />
<rect x="52" y="12" width="4" height="4" fill="#1C1C1C" />
<rect x="4" y="16" width="4" height="4" fill="#1C1C1C" />
<rect x="8" y="16" width="4" height="4" fill="#1C1C1C" />
<rect x="12" y="16" width="4" height="4" fill="#1C1C1C" />
<rect x="16" y="16" width="4" height="4" fill="#696A6A" />
<rect x="20" y="16" width="4" height="4" fill="#696A6A" />
<rect x="24" y="16" width="4" height="4" fill="#696A6A" />
<rect x="28" y="16" width="4" height="4" fill="#696A6A" />
<rect x="32" y="16" width="4" height="4" fill="#1C1C1C" />
<rect x="36" y="16" width="4" height="4" fill="#E4E4E4" />
<rect x="40" y="16" width="4" height="4" fill="#1C1C1C" />
<rect x="44" y="16" width="4" height="4" fill="#1C1C1C" />
<rect x="48" y="16" width="4" height="4" fill="#E4E4E4" />
<rect x="52" y="16" width="4" height="4" fill="#1C1C1C" />
<rect x="0" y="20" width="4" height="4" fill="#1C1C1C" />
<rect x="4" y="20" width="4" height="4" fill="#696A6A" />
<rect x="8" y="20" width="4" height="4" fill="#696A6A" />
<rect x="12" y="20" width="4" height="4" fill="#696A6A" />
<rect x="16" y="20" width="4" height="4" fill="#696A6A" />
<rect x="20" y="20" width="4" height="4" fill="#696A6A" />
<rect x="24" y="20" width="4" height="4" fill="#696A6A" />
<rect x="28" y="20" width="4" height="4" fill="#696A6A" />
<rect x="32" y="20" width="4" height="4" fill="#1C1C1C" />
<rect x="36" y="20" width="4" height="4" fill="#1C1C1C" />
<rect x="40" y="20" width="4" height="4" fill="#E4E4E4" />
<rect x="44" y="20" width="4" height="4" fill="#1C1C1C" />
<rect x="48" y="20" width="4" height="4" fill="#E4E4E4" />
<rect x="52" y="20" width="4" height="4" fill="#1C1C1C" />
<rect x="0" y="24" width="4" height="4" fill="#1C1C1C" />
<rect x="4" y="24" width="4" height="4" fill="#696A6A" />
<rect x="8" y="24" width="4" height="4" fill="#696A6A" />
<rect x="12" y="24" width="4" height="4" fill="#696A6A" />
<rect x="16" y="24" width="4" height="4" fill="#696A6A" />
<rect x="20" y="24" width="4" height="4" fill="#696A6A" />
<rect x="24" y="24" width="4" height="4" fill="#696A6A" />
<rect x="28" y="24" width="4" height="4" fill="#696A6A" />
<rect x="32" y="24" width="4" height="4" fill="#1C1C1C" />
<rect x="36" y="24" width="4" height="4" fill="#1C1C1C" />
<rect x="40" y="24" width="4" height="4" fill="#E4E4E4" />
<rect x="44" y="24" width="4" height="4" fill="#1C1C1C" />
<rect x="48" y="24" width="4" height="4" fill="#E4E4E4" />
<rect x="52" y="24" width="4" height="4" fill="#1C1C1C" />
<rect x="0" y="28" width="4" height="4" fill="#1C1C1C" />
<rect x="4" y="28" width="4" height="4" fill="#696A6A" />
<rect x="8" y="28" width="4" height="4" fill="#1C1C1C" />
<rect x="12" y="28" width="4" height="4" fill="#1C1C1C" />
<rect x="16" y="28" width="4" height="4" fill="#1C1C1C" />
<rect x="20" y="28" width="4" height="4" fill="#1C1C1C" />
<rect x="24" y="28" width="4" height="4" fill="#1C1C1C" />
<rect x="28" y="28" width="4" height="4" fill="#696A6A" />
<rect x="32" y="28" width="4" height="4" fill="#1C1C1C" />
<rect x="36" y="28" width="4" height="4" fill="#1C1C1C" />
<rect x="40" y="28" width="4" height="4" fill="#E4E4E4" />
<rect x="44" y="28" width="4" height="4" fill="#1C1C1C" />
<rect x="48" y="28" width="4" height="4" fill="#E4E4E4" />
<rect x="52" y="28" width="4" height="4" fill="#1C1C1C" />
<rect x="0" y="32" width="4" height="4" fill="#1C1C1C" />
<rect x="4" y="32" width="4" height="4" fill="#696A6A" />
<rect x="8" y="32" width="4" height="4" fill="#696A6A" />
<rect x="12" y="32" width="4" height="4" fill="#696A6A" />
<rect x="16" y="32" width="4" height="4" fill="#696A6A" />
<rect x="20" y="32" width="4" height="4" fill="#1C1C1C" />
<rect x="24" y="32" width="4" height="4" fill="#1C1C1C" />
<rect x="28" y="32" width="4" height="4" fill="#696A6A" />
<rect x="32" y="32" width="4" height="4" fill="#1C1C1C" />
<rect x="36" y="32" width="4" height="4" fill="#1C1C1C" />
<rect x="40" y="32" width="4" height="4" fill="#E4E4E4" />
<rect x="44" y="32" width="4" height="4" fill="#1C1C1C" />
<rect x="48" y="32" width="4" height="4" fill="#E4E4E4" />
<rect x="52" y="32" width="4" height="4" fill="#1C1C1C" />
<rect x="4" y="36" width="4" height="4" fill="#1C1C1C" />
<rect x="8" y="36" width="4" height="4" fill="#1C1C1C" />
<rect x="12" y="36" width="4" height="4" fill="#1C1C1C" />
<rect x="16" y="36" width="4" height="4" fill="#696A6A" />
<rect x="20" y="36" width="4" height="4" fill="#696A6A" />
<rect x="24" y="36" width="4" height="4" fill="#1C1C1C" />
<rect x="28" y="36" width="4" height="4" fill="#696A6A" />
<rect x="32" y="36" width="4" height="4" fill="#1C1C1C" />
<rect x="36" y="36" width="4" height="4" fill="#E4E4E4" />
<rect x="40" y="36" width="4" height="4" fill="#1C1C1C" />
<rect x="44" y="36" width="4" height="4" fill="#1C1C1C" />
<rect x="48" y="36" width="4" height="4" fill="#E4E4E4" />
<rect x="52" y="36" width="4" height="4" fill="#1C1C1C" />
<rect x="16" y="40" width="4" height="4" fill="#1C1C1C" />
<rect x="20" y="40" width="4" height="4" fill="#696A6A" />
<rect x="24" y="40" width="4" height="4" fill="#696A6A" />
<rect x="28" y="40" width="4" height="4" fill="#696A6A" />
<rect x="32" y="40" width="4" height="4" fill="#1C1C1C" />
<rect x="36" y="40" width="4" height="4" fill="#1C1C1C" />
<rect x="44" y="40" width="4" height="4" fill="#1C1C1C" />
<rect x="48" y="40" width="4" height="4" fill="#E4E4E4" />
<rect x="52" y="40" width="4" height="4" fill="#1C1C1C" />
<rect x="20" y="44" width="4" height="4" fill="#1C1C1C" />
<rect x="24" y="44" width="4" height="4" fill="#696A6A" />
<rect x="28" y="44" width="4" height="4" fill="#696A6A" />
<rect x="32" y="44" width="4" height="4" fill="#1C1C1C" />
<rect x="40" y="44" width="4" height="4" fill="#1C1C1C" />
<rect x="44" y="44" width="4" height="4" fill="#E4E4E4" />
<rect x="48" y="44" width="4" height="4" fill="#1C1C1C" />
<rect x="24" y="48" width="4" height="4" fill="#1C1C1C" />
<rect x="28" y="48" width="4" height="4" fill="#696A6A" />
<rect x="32" y="48" width="4" height="4" fill="#1C1C1C" />
<rect x="40" y="48" width="4" height="4" fill="#E4E4E4" />
<rect x="44" y="48" width="4" height="4" fill="#1C1C1C" />
<rect x="28" y="52" width="4" height="4" fill="#1C1C1C" />
<rect x="40" y="52" width="4" height="4" fill="#1C1C1C" />
</svg>